<?xml version="1.0" encoding="UTF-8" standalone="no"?>
<!-- Created with Inkscape (http://www.inkscape.org/) -->

<svg
   width="88.222511mm"
   height="83.043137mm"
   viewBox="0 0 88.222511 83.043137"
   version="1.1"
   id="svg5"
   xml:space="preserve"
   inkscape:export-filename="woem.svg"
   inkscape:export-xdpi="96"
   inkscape:export-ydpi="96"
   xmlns:inkscape="http://www.inkscape.org/namespaces/inkscape"
   xmlns:sodipodi="http://sodipodi.sourceforge.net/DTD/sodipodi-0.dtd"
   xmlns="http://www.w3.org/2000/svg"
   xmlns:svg="http://www.w3.org/2000/svg"><sodipodi:namedview
     id="namedview7"
     pagecolor="#ffffff"
     bordercolor="#111111"
     borderopacity="1"
     inkscape:showpageshadow="0"
     inkscape:pageopacity="0"
     inkscape:pagecheckerboard="1"
     inkscape:deskcolor="#d1d1d1"
     inkscape:document-units="mm"
     showgrid="false" /><defs
     id="defs2" /><g
     inkscape:label="Layer 1"
     inkscape:groupmode="layer"
     id="layer1"
     transform="translate(-55.706964,-56.898783)"><g
       id="g322"><ellipse
         style="display:inline;fill:#2f2f2f;fill-opacity:1;stroke-width:0.264583"
         id="path1570"
         ry="18.533897"
         rx="20.707626"
         cy="90.266953"
         cx="95.872879" /><path
         style="display:inline;fill:#f9c019;stroke-width:0.704253"
         d="m 101.96153,139.86484 c -8.702637,0.20956 -14.271056,-0.003 -18.380634,-0.70119 -3.242621,-0.55101 -8.392666,-1.81876 -11.444544,-2.81722 -3.051879,-0.99845 -7.255089,-2.87126 -9.340468,-4.16179 -2.085379,-1.29053 -4.526263,-3.47263 -5.424189,-4.84912 -1.549453,-2.37527 -2.011404,-3.01872 -1.410468,-12.30108 0.261612,-4.04099 0.315819,-6.10294 0.71127,-9.12965 0.353322,-2.70427 1.02911,-6.163464 1.481552,-8.046487 0.241648,-0.99258 0.989531,-3.117393 1.661962,-4.721806 l 1.2226,-2.917114 c 3.716531,-7.687888 -1.690337,4.022305 1.862563,-3.894846 l 1.116187,-1.840134 c 0.613903,-1.012074 2.259461,-3.355966 3.656797,-5.20865 l 2.540611,-3.368516 -1.338683,-6.639117 c -0.761382,-3.77603 -1.153523,-7.656629 -0.909321,-8.998592 0.298735,-1.641644 0.962729,-2.568533 2.182517,-3.046638 1.131962,-0.443681 3.305634,-0.431483 6.134612,0.03442 2.409801,0.396873 7.144291,1.55316 10.521088,2.569527 5.184764,1.560537 7.91955,1.897409 17.584178,2.166023 6.2945,0.174947 13.16122,0.360923 15.25939,0.41328 2.09817,0.05236 7.62171,-0.167118 12.27454,-0.487722 7.36508,-0.507492 8.68884,-0.428123 10.23073,0.613404 1.1793,0.796608 1.77258,1.847828 1.77564,3.146251 0.003,1.072462 -0.81762,4.945913 -1.82255,8.607669 l -1.82716,6.657737 1.44094,5.140752 c 0.79252,2.827414 1.62854,6.910526 1.85781,9.073583 0.26561,2.505731 -0.0527,6.686306 -0.8772,11.520896 -1.12845,6.61681 -1.1807,8.16109 -0.40829,12.06491 0.72887,3.68372 0.72212,4.88071 -0.0382,6.75653 -0.50816,1.25383 -2.24574,3.4461 -3.86129,4.87171 -1.61554,1.42562 -5.01149,3.44843 -7.54655,4.49515 -2.53505,1.04672 -7.26225,2.53179 -10.50487,3.30016 -4.2687,1.01149 -9.34102,1.47998 -18.38063,1.69766 z M 90.097506,105.88372 c 1.985741,-0.2925 3.256112,-2.40273 4.572744,-3.91772 0.966745,-1.11239 2.15967,-3.321419 2.380402,-3.725828 0.466299,-0.854323 1.096028,-1.767627 1.096028,-2.679469 0,-0.911841 -0.413372,-2.011572 -0.918604,-2.443846 -0.505233,-0.432273 -3.880188,-1.120866 -5.879775,-1.261304 -2.005964,-0.140886 -4.38843,-0.750528 -6.017483,0.428422 -0.752175,0.544351 -0.989815,1.651296 -1.056313,2.577397 -0.125437,1.746935 0.762656,3.422577 1.277498,5.09663 0.487778,1.586058 1.473138,3.986118 1.712253,4.674358 0.300216,0.86411 1.811841,1.40181 2.83325,1.25136 z m 17.903164,-8.133636 c 1.28765,0.06549 2.76813,-0.866183 3.74197,-1.86265 0.95579,-0.977995 1.459,-2.376015 1.7433,-3.713616 0.21446,-1.009004 0.19398,-2.094732 -0.062,-3.094009 -0.28363,-1.107212 -0.67738,-2.23185 -1.588,-3.039005 -0.84447,-0.823691 -2.02971,-1.460805 -3.20908,-1.49313 -1.24029,-0.03399 -2.49202,0.601606 -3.45578,1.38303 -1.04888,0.850436 -1.81417,2.090589 -2.25008,3.368624 -0.3975,1.165431 -0.25289,3.6854 -0.25289,3.6854 0.29657,1.371439 0.93882,2.53557 1.89339,3.424445 0.72685,0.676825 1.74814,0.981051 2.70352,1.252429 0.2405,0.06009 0.48914,0.07333 0.73565,0.08848 z M 81.846874,92.547191 c 1.435596,-0.36463 2.782031,-1.298895 3.699131,-2.462002 1.04551,-1.325962 1.706817,-3.067314 1.745628,-4.755438 0.03241,-1.409623 -0.286323,-3.027043 -1.27361,-4.033696 -0.95673,-0.975496 -2.522298,-1.420837 -3.884139,-1.309878 -1.607965,0.131012 -3.179355,1.084672 -4.27526,2.268609 -1.081862,1.168766 -1.907424,3.011397 -1.907424,4.380603 0,1.199499 0.131712,2.538793 0.738951,3.604353 0.502452,0.881683 1.32492,1.638495 2.254229,2.046181 0.889573,0.390253 1.960979,0.500405 2.902494,0.261268 z"
         id="path334"
         sodipodi:nodetypes="scssssaccssccsscssssssssscscsssscsssacaasssaaaacaaaaacaaasacaaaaaasaaa" /></g></g><g
     inkscape:groupmode="layer"
     id="layer2"
     inkscape:label="Layer 2"
     transform="translate(-55.706964,-56.898783)"><path
       style="display:inline;fill:#000000;fill-opacity:1;stroke-width:0.264583"
       d="m 59.601562,85.115234 c -0.254256,0.05348 -0.500356,0.139433 -0.740234,0.238282 -0.209518,0.114821 -0.40345,0.273591 -0.519075,0.485918 -0.105266,0.198349 -0.153044,0.424283 -0.159489,0.64781 -0.0026,0.231312 -0.03604,0.481743 0.08944,0.689868 0.09979,0.187311 0.216318,0.373867 0.395763,0.494763 0.310659,0.228395 0.633171,0.44011 0.948876,0.661425 1.01305,0.69837 2.024834,1.398609 3.03867,2.095819 1.458526,0.968545 2.915303,1.939755 4.37492,2.906636 1.198441,0.77907 2.404091,1.54695 3.612041,2.311171 0.260718,0.163106 0.517593,0.332645 0.780551,0.492001 0.262661,0.147507 0.52326,0.302744 0.807442,0.405995 0.258841,0.07842 0.536357,0.03065 0.790182,-0.04412 0.260093,-0.07557 0.523706,-0.212642 0.657083,-0.459791 0.135225,-0.227798 0.127572,-0.504934 0.09432,-0.75876 -0.03824,-0.236279 -0.06951,-0.488214 -0.217813,-0.685122 -0.143542,-0.209381 -0.359603,-0.350424 -0.557197,-0.503404 -0.517689,-0.396999 -1.039378,-0.788686 -1.563578,-1.17704 -0.810153,-0.604096 -1.633159,-1.190616 -2.458271,-1.774029 -0.82612,-0.585232 -1.653494,-1.16872 -2.487249,-1.743044 -0.600924,-0.412861 -1.20233,-0.825064 -1.810769,-1.226813 -0.833299,-0.555071 -1.66972,-1.105522 -2.510362,-1.649407 -0.602119,-0.385315 -1.204857,-0.769662 -1.807437,-1.154256 -0.203115,-0.114208 -0.411243,-0.244885 -0.65076,-0.257397 -0.03557,-7.93e-4 -0.07144,0.0034 -0.107053,0.0035 z"
       id="path2083"
       sodipodi:nodetypes="ccccc" /><path
       style="display:inline;fill:#000000;fill-opacity:1;stroke-width:0.264583"
       d="m 72.292969,99.472656 c -0.47559,0.02004 -0.950895,0.04537 -1.425756,0.07855 -1.296563,0.08194 -2.59221,0.17781 -3.887605,0.276334 -1.355451,0.103796 -2.709606,0.22354 -4.064258,0.33712 -1.928833,0.16822 -3.857644,0.33667 -5.786444,0.50526 -0.274995,0.0541 -0.532564,0.18569 -0.742187,0.3711 -0.185324,0.21507 -0.401217,0.42661 -0.476831,0.70896 -0.08345,0.3045 0.01517,0.64645 0.236436,0.86933 0.194569,0.2091 0.487823,0.28907 0.765785,0.2928 0.320479,0.006 0.640549,-0.0188 0.960837,-0.0271 1.608315,-0.0599 3.216201,-0.13066 4.82432,-0.19553 1.103739,-0.0545 2.207633,-0.10604 3.310835,-0.17077 0.620824,-0.0323 1.241234,-0.0714 1.861381,-0.11467 0.983654,-0.0683 1.96703,-0.14184 2.948781,-0.2339 0.580201,-0.0531 1.160207,-0.10834 1.740331,-0.1623 0.237529,-0.0366 0.451875,-0.17339 0.603775,-0.35706 0.150522,-0.19485 0.305372,-0.3917 0.398737,-0.62181 0.08347,-0.19853 0.08935,-0.41832 0.05608,-0.62855 -0.05437,-0.22884 -0.05746,-0.496551 -0.238282,-0.669925 -0.164448,-0.148369 -0.380282,-0.238492 -0.600896,-0.25446 -0.161271,-0.0178 -0.323449,-0.01357 -0.485041,-0.0034 z"
       id="path2085"
       sodipodi:nodetypes="cssccssccc" /><path
       style="display:inline;fill:#000000;fill-opacity:1;stroke-width:0.264583"
       d="m 131.24023,94.550781 c -0.62086,0.12362 -1.21924,0.335565 -1.81197,0.553965 -1.09725,0.395771 -2.18656,0.813007 -3.2746,1.233277 -1.45263,0.56306 -2.88918,1.166306 -4.32913,1.760743 -1.10151,0.459572 -2.20113,0.923615 -3.29914,1.391468 -0.43367,0.203267 -0.85354,0.434256 -1.27656,0.658426 -0.32839,0.18417 -0.65677,0.36834 -0.98516,0.55251 -0.15468,0.24402 -0.43755,0.41875 -0.46736,0.72901 -0.0661,0.28912 -0.12195,0.58987 -0.0717,0.88623 0.0501,0.24444 0.19726,0.48099 0.42742,0.59116 0.31502,0.17691 0.70205,0.17153 1.04096,0.0711 0.39903,-0.11738 0.77619,-0.29627 1.16182,-0.45009 2.04725,-0.84425 4.09173,-1.69541 6.14716,-2.51962 0.64044,-0.256088 1.28029,-0.5137 1.92661,-0.754689 1.56153,-0.592317 3.13411,-1.154886 4.70162,-1.731064 0.27187,-0.111867 0.56425,-0.178924 0.82081,-0.324246 0.24907,-0.132396 0.47619,-0.31677 0.62465,-0.559518 0.19679,-0.299093 0.29814,-0.671629 0.23879,-1.028115 -0.0565,-0.31602 -0.26948,-0.58766 -0.53856,-0.754937 -0.22182,-0.1388 -0.46459,-0.259616 -0.72631,-0.295268 -0.10264,-0.01381 -0.20601,-0.02191 -0.30935,-0.01034 z"
       id="path2087"
       sodipodi:nodetypes="ccccc"
       inkscape:label="path2087" /><path
       style="display:inline;fill:#000000;fill-opacity:1;stroke-width:0.264583"
       d="m 115.51367,105.94336 c -0.26515,0.0351 -0.53878,0.10969 -0.75057,0.28033 -0.17602,0.13631 -0.27845,0.35523 -0.29177,0.57553 -3.5e-4,0.25033 0.0941,0.4901 0.17906,0.72226 0.0944,0.2396 0.23509,0.46602 0.44396,0.62187 0.21857,0.18416 0.4972,0.27015 0.76423,0.35767 0.87422,0.28043 1.75021,0.55537 2.62927,0.82025 1.39806,0.42433 2.7952,0.85175 4.19387,1.27407 0.82118,0.24686 1.64324,0.49099 2.46846,0.72404 1.39865,0.38205 2.79931,0.75688 4.20339,1.11852 0.42967,0.10859 0.85935,0.21713 1.28901,0.32577 0.19679,0.0709 0.41169,0.12982 0.61775,0.0586 0.13632,-0.0221 0.28003,-0.0586 0.36567,-0.17675 0.15452,-0.15199 0.20852,-0.37714 0.20982,-0.58785 -0.0108,-0.27247 -0.0435,-0.54563 -0.12588,-0.80648 -0.0615,-0.225 -0.24027,-0.39625 -0.4365,-0.51093 -0.22343,-0.12711 -0.46289,-0.22344 -0.70151,-0.31784 -0.27875,-0.10759 -0.55949,-0.20966 -0.84302,-0.304 -1.03293,-0.35534 -2.07231,-0.6915 -3.10899,-1.03566 -0.48998,-0.16177 -0.97921,-0.32582 -1.47216,-0.4784 -0.82518,-0.26146 -1.652,-0.51777 -2.48123,-0.7661 -0.40937,-0.12417 -0.81873,-0.24842 -1.23084,-0.3633 -0.82734,-0.23692 -1.65523,-0.47199 -2.48416,-0.70327 -0.96465,-0.26314 -1.93227,-0.5152 -2.90075,-0.76385 -0.17578,-0.0416 -0.35584,-0.0728 -0.53711,-0.0645 z"
       id="path2089"
       sodipodi:nodetypes="ccccc" /></g></svg>
