<?xml version="1.0" encoding="UTF-8" standalone="no"?>
<!-- Created with Inkscape (http://www.inkscape.org/) -->

<svg
   width="91.408813mm"
   height="82.855591mm"
   viewBox="0 0 91.408813 82.855591"
   version="1.1"
   id="svg1136"
   xml:space="preserve"
   inkscape:export-filename="flop.svg"
   inkscape:export-xdpi="96"
   inkscape:export-ydpi="96"
   xmlns:inkscape="http://www.inkscape.org/namespaces/inkscape"
   xmlns:sodipodi="http://sodipodi.sourceforge.net/DTD/sodipodi-0.dtd"
   xmlns="http://www.w3.org/2000/svg"
   xmlns:svg="http://www.w3.org/2000/svg"><sodipodi:namedview
     id="namedview1138"
     pagecolor="#ffffff"
     bordercolor="#111111"
     borderopacity="1"
     inkscape:showpageshadow="0"
     inkscape:pageopacity="0"
     inkscape:pagecheckerboard="1"
     inkscape:deskcolor="#d1d1d1"
     inkscape:document-units="mm"
     showgrid="false" /><defs
     id="defs1133" /><g
     inkscape:label="Layer 1"
     inkscape:groupmode="layer"
     id="layer1"
     transform="translate(-70.428346,-92.752744)"><g
       id="g1632"><path
         style="display:inline;fill:#fdc40c;stroke-width:0.463021"
         d="m 112.29983,172.8318 c -0.86131,0.16159 -6.55219,0.0876 -12.64639,-0.16434 -6.215982,-0.25701 -11.969958,-0.28631 -13.106721,-0.0668 -3.324581,0.64214 -9.979166,0.50684 -11.764661,-0.23918 -1.816706,-0.75908 -1.038141,-2.87222 -0.926926,-4.35089 0.147083,-1.95554 1.30607,-3.15363 2.072765,-5.50596 0.766695,-2.35233 1.931179,-5.33705 2.587742,-6.63272 1.193752,-2.35576 1.193752,-2.35576 0.259261,-13.31783 -0.992827,-11.64636 -1.144138,-18.08901 -0.516491,-21.99152 0.385699,-2.39815 0.385699,-2.39815 -1.885156,-4.50971 -1.546278,-1.52782 -2.988492,-2.53964 -4.380353,-4.01321 -1.315519,-1.59949 -2.108565,-2.93083 -1.123987,-4.77053 1.922586,-3.59239 23.260485,-11.656758 36.339477,-13.734016 10.32533,-1.639911 22.88548,-0.571217 28.01276,1.991089 3.66252,1.830307 7.60257,4.751907 10.58137,8.027057 5.40488,5.94259 10.11066,12.88097 12.68393,20.49053 2.00795,5.93783 1.34761,12.46546 1.83798,18.7144 0.47171,6.01119 0.32712,14.86754 1.06166,18.05782 0.73454,3.19028 0.9408,9.01773 -2.32141,10.56575 -1.68173,0.79803 -2.75794,0.88241 -17.82426,1.39745 -3.69259,0.12623 -7.96396,0.33074 -9.49193,0.45446 -6.45431,-0.0721 -11.49205,-0.20372 -19.44866,-0.40185 z"
         id="path1636"
         sodipodi:nodetypes="cscsassssccsssaaszsscc" /><path
         style="display:inline;fill:#0c0902;stroke-width:0.463021"
         d="m 117.47995,175.13972 c -1.64271,-0.59401 -3.62626,-2.01165 -3.46447,-3.93186 0.1866,-2.21455 1.4474,-2.42691 3.17553,-0.53484 1.15187,1.26113 1.6072,1.43337 3.7893,1.43337 2.58234,0 3.59136,0.54179 3.59136,1.9284 0,1.74705 -4.84187,1.91848 -7.09172,1.10493 z m 3.85057,-6.83792 c -0.91527,-0.53408 -2.11872,-1.36008 -2.2244,-2.27129 -0.20263,-1.74736 0.84137,-1.93059 4.19311,-0.73592 2.67439,0.95323 2.89301,1.13586 2.89301,2.41666 0,1.20164 -0.18434,1.4029 -1.38906,1.51659 -0.76911,0.0726 -2.43793,-0.32226 -3.47266,-0.92604 z m -21.21606,-0.63952 c -3.161092,-1.57524 -3.14942,-3.7131 -2.843719,-5.86381 0.344263,-2.422 2.582845,-4.71294 4.915649,-5.44958 2.22738,-0.70335 5.36271,-0.25267 6.83054,1.56431 2.1046,2.60522 3.27612,8.13059 0.13407,10.04641 -2.20143,1.3423 -5.99683,1.21742 -9.03654,-0.29733 z m 13.22895,-12.72853 c -1.14988,-0.66438 -1.01343,-1.32603 0.62129,-3.01263 1.43158,-1.47701 1.43158,-1.47701 0.34727,-3.37959 -1.08431,-1.90258 -1.08431,-1.90258 0.21167,-4.33279 1.29598,-2.43022 1.29598,-2.43022 -0.27665,-3.81928 -2.36165,-2.08599 -2.81071,-3.17456 -1.71762,-4.16378 1.22109,-1.10508 2.62638,-0.6646 5.25132,1.64597 2.39598,2.10902 2.73668,3.53371 1.44321,6.03501 -0.68428,1.32323 -0.6628,1.4527 0.46294,2.79057 1.74369,2.07225 0.9297,4.71524 -2.16672,7.03526 -1.92163,1.43981 -3.15157,1.79355 -4.17671,1.20126 z m -12.78025,-23.99059 c -2.493756,-1.32173 -4.855087,-4.26869 -4.63959,-7.08282 0.193528,-2.52724 2.745625,-4.6802 5.08649,-5.65216 1.45012,-0.60211 3.31921,-0.49966 4.70435,0.23976 2.44215,1.30368 4.68323,3.90247 4.96663,6.65626 0.21528,2.09184 -0.89972,4.57416 -2.66388,5.71867 -2.08471,1.35247 -5.25835,1.28402 -7.454,0.12029 z m 24.03186,-12.96657 c -1.12909,-2.10973 3.83931,-3.61175 6.29576,-4.03981 0.97442,-0.1698 2.44534,-0.17169 2.89222,0.66331 0.76246,1.42466 0.15738,2.35031 -1.73195,2.64959 -1.73161,0.27429 -4.15142,0.84045 -5.93492,1.38858 -0.7395,0.22728 -1.13817,0.0539 -1.52111,-0.66167 z m -7.56649,-1.25883 c -1.56964,-1.56963 1.89588,-7.5787 6.00599,-10.41414 2.14161,-1.47743 3.45295,-1.67975 4.29683,-0.66294 0.8189,0.98671 0.17055,2.42522 -1.32861,2.94783 -1.41019,0.49159 -4.30803,3.68493 -5.86849,6.46691 -0.90708,1.61713 -2.36864,2.39943 -3.10572,1.66234 z"
         id="path1634"
         sodipodi:nodetypes="assssaassssasaaasssssssssssssaaaaaaacassscssssss" /></g></g></svg>
