<?xml version="1.0" encoding="UTF-8" standalone="no"?>
<!-- Created with Inkscape (http://www.inkscape.org/) -->

<svg
   width="33.409096mm"
   height="30.846252mm"
   viewBox="0 0 33.409096 30.846252"
   version="1.1"
   id="svg5"
   xml:space="preserve"
   inkscape:export-filename="bitmap.svg"
   inkscape:export-xdpi="96"
   inkscape:export-ydpi="96"
   xmlns:inkscape="http://www.inkscape.org/namespaces/inkscape"
   xmlns:sodipodi="http://sodipodi.sourceforge.net/DTD/sodipodi-0.dtd"
   xmlns:xlink="http://www.w3.org/1999/xlink"
   xmlns="http://www.w3.org/2000/svg"
   xmlns:svg="http://www.w3.org/2000/svg"><sodipodi:namedview
     id="namedview7"
     pagecolor="#ffffff"
     bordercolor="#111111"
     borderopacity="1"
     inkscape:showpageshadow="0"
     inkscape:pageopacity="0"
     inkscape:pagecheckerboard="1"
     inkscape:deskcolor="#d1d1d1"
     inkscape:document-units="mm"
     showgrid="false" /><defs
     id="defs2" /><g
     inkscape:label="Layer 1"
     inkscape:groupmode="layer"
     id="layer1"
     style="display:inline"
     transform="translate(-66.215707,-106.97644)"><image
       width="33.866665"
       height="33.866665"
       preserveAspectRatio="none"
       id="image190"
       x="65.812935"
       y="106.44727"
       style="display:none" /><path
       style="fill:#3d3a27;fill-opacity:1;stroke-width:0.0436303"
       d="m 284.99252,435.33162 c -2.89054,0.0524 -5.65962,1.43185 -7.64877,3.49468 -1.7414,1.78739 -3.00419,4.02442 -3.72739,6.4071 -0.7966,2.6356 -0.31296,5.58797 1.18838,7.88303 1.63807,2.55158 4.48911,4.37259 7.54652,4.51632 1.18721,0.0265 2.42835,-0.0238 3.49947,-0.59651 1.99581,-1.06079 3.70411,-2.60827 5.14104,-4.34053 1.33008,-1.60938 2.38406,-3.52339 2.62199,-5.62541 0.17962,-1.64044 0.11674,-3.32277 -0.27781,-4.92894 -0.52902,-2.17677 -1.77022,-4.23995 -3.67428,-5.47377 -1.37343,-0.90833 -3.02833,-1.35104 -4.66915,-1.33597 z m -0.35449,3.05975 c 0.93254,-0.0367 1.87749,0.12493 2.71078,0.55603 1.57051,0.77031 2.58232,2.36481 3.00591,4.02082 0.31824,1.11596 0.34455,2.29517 0.23665,3.44354 -0.33952,2.2918 -1.51639,4.44986 -3.29359,5.94239 -1.37814,1.17688 -3.13554,2.01311 -4.97759,1.97392 -2.23402,-0.006 -4.3759,-1.53699 -5.09235,-3.65706 -0.52662,-1.52828 -0.56848,-3.18503 -0.41173,-4.78018 0.34756,-2.89992 2.21474,-5.6151 4.90286,-6.81541 0.91597,-0.40421 1.90735,-0.71611 2.91906,-0.68405 z"
       id="path4389"
       transform="scale(0.26458333)" /><path
       style="fill:#3d3a27;fill-opacity:1;stroke-width:0.0617025"
       d="m 273.31073,460.7665 c -1.85501,0.0407 -3.65776,0.38362 -5.50765,0.52356 -3.23689,0.35535 -6.50242,0.4589 -9.71129,1.0577 -0.86198,0.20713 -1.93658,0.41137 -2.37074,1.28513 -0.32495,0.70947 0.21873,1.45749 0.87505,1.71852 0.54442,0.35332 1.28959,0.0951 1.56558,-0.46892 1.35946,-0.51318 2.84795,-0.59337 4.25953,-0.75128 2.69272,-0.22919 5.35728,-0.29953 8.04458,-0.22367 -2.82271,0.22786 -5.66325,0.23713 -8.5088,0.34057 -0.73751,0.0184 -1.23187,0.96063 -0.77666,1.55307 0.40284,0.64763 1.2641,0.44124 1.90074,0.55229 2.80698,0.20266 5.60443,0.44855 8.4065,0.6682 1.95117,0.086 4.02587,-0.25846 5.6292,-1.43828 0.87213,-0.62157 1.43115,-1.84204 0.90601,-2.85856 -0.68436,-1.19152 -2.10738,-1.70001 -3.40087,-1.88205 -0.4344,-0.0582 -0.87312,-0.0789 -1.31118,-0.0763 z"
       id="path4402"
       transform="scale(0.26458333)" /><path
       style="fill:#3d3a27;fill-opacity:1;stroke-width:0.0617025"
       d="m 273.03404,471.38801 c -1.38822,0.11588 -2.67076,0.73402 -3.95285,1.23474 -4.19197,1.80743 -8.2665,3.88819 -12.21433,6.17913 -1.21983,0.76591 -2.54127,1.44781 -3.52569,2.52096 -0.66385,0.82367 -0.49404,2.27625 0.54447,2.71298 1.08274,0.38824 2.2716,0.1032 3.34639,-0.1793 3.19146,-0.96207 6.1943,-2.44484 9.17117,-3.92406 2.58021,-1.3448 5.18438,-2.7153 7.43923,-4.5738 0.75575,-0.67091 1.66875,-1.52762 1.51678,-2.6379 -0.17116,-1.08621 -1.40351,-1.3491 -2.32517,-1.33275 z m -2.75601,3.42244 c -2.51196,1.97441 -5.33773,3.51751 -8.19612,4.89443 -1.72332,0.7937 -3.51028,1.58733 -5.3936,2.03244 -0.44008,0.13298 -0.006,-0.15321 0.14363,-0.28433 2.22214,-1.69798 4.70397,-2.89211 7.2199,-4.08545 2.09884,-0.96987 4.21309,-1.84717 6.37804,-2.68206 -0.0506,0.0417 -0.10124,0.0833 -0.15185,0.12497 z"
       id="path4404"
       transform="scale(0.26458333)" /><path
       style="fill:#3d3a27;fill-opacity:1;stroke-width:0.0617025"
       d="m 287.74563,461.7012 c -1.35728,0.0281 -2.41265,1.09327 -3.11345,2.15778 -0.72175,1.14897 -0.51856,2.59298 -0.26742,3.85375 0.70512,3.06722 1.59896,6.11006 2.90376,8.98001 0.91741,1.91636 2.06938,3.90992 4.00709,4.94429 1.6527,0.90151 3.68691,0.45553 5.22117,-0.47869 2.02376,-1.24912 3.58428,-3.08369 5.31293,-4.6877 0.32481,-0.31479 0.65616,-0.62349 1.01074,-0.90482 1.89527,2.36543 3.2282,5.12999 5.2053,7.43299 0.87722,0.97527 1.889,2.02909 3.24228,2.25118 1.2598,0.11143 2.35529,-0.67309 3.40241,-1.25499 3.41792,-2.12431 6.49215,-4.75447 9.40749,-7.51605 1.24113,-1.25821 2.58385,-2.54838 3.19359,-4.24916 0.56672,-1.48687 -0.34747,-3.32909 -1.88795,-3.74566 -1.63861,-0.4414 -3.2961,0.32525 -4.69242,1.12499 -2.16042,1.22428 -3.90452,3.01121 -5.80931,4.57298 -0.78717,0.62134 -1.57871,1.25858 -2.48509,1.69923 -2.31564,-3.24362 -4.03583,-6.88816 -6.59277,-9.96604 -0.56801,-0.66492 -1.28673,-1.47219 -2.26009,-1.30962 -1.32207,0.20775 -2.25276,1.28338 -3.18275,2.14924 -2.12819,2.06206 -3.903,4.44266 -5.82052,6.69194 -0.99231,-2.49171 -1.5975,-5.1003 -2.69403,-7.56763 -0.64998,-1.41863 -1.35681,-2.96252 -2.72904,-3.81938 -0.41265,-0.24426 -0.8927,-0.36857 -1.37192,-0.35864 z m 0.0781,4.23867 c 1.17311,1.65249 1.81161,3.60476 2.54014,5.47731 0.68223,1.72728 1.30035,3.50868 2.31616,5.07515 0.35612,0.53461 1.01465,1.04994 1.66782,0.69637 1.4893,-0.95999 2.65075,-2.3309 3.86925,-3.59763 1.66564,-1.80762 3.28037,-3.7014 5.2569,-5.18153 1.33579,1.33659 2.35842,2.94795 3.38811,4.52249 1.44793,2.294 2.84207,4.64432 4.60488,6.71565 0.40194,0.53504 1.15915,0.79147 1.76372,0.44063 1.26229,-0.72315 2.26459,-1.81008 3.33375,-2.78034 1.85508,-1.73503 3.55221,-3.62542 5.596,-5.14326 0.48085,-0.31093 1.01962,-0.71 1.56763,-0.78682 0.14609,0.52566 -0.3725,0.89261 -0.61905,1.28831 -1.73905,2.10945 -3.76861,3.97492 -5.80705,5.79061 -1.54402,1.31687 -3.07786,2.68013 -4.84256,3.69757 -0.20144,0.13842 -0.4247,0.22113 -0.58461,-0.0186 -2.35105,-2.14193 -3.94708,-4.93042 -5.77497,-7.51294 -0.73236,-1.0067 -1.37242,-2.09538 -2.22176,-3.00896 -0.48721,-0.43108 -1.22675,-0.2314 -1.6184,0.23023 -2.28282,2.02001 -4.3108,4.32835 -6.71092,6.1937 -0.70715,0.49294 -1.40754,1.082 -2.26413,1.27496 -1.51855,-1.2612 -2.38251,-3.09096 -3.26155,-4.81408 -0.95448,-2.04048 -1.82023,-4.16076 -2.19212,-6.39321 -0.0851,-0.73308 -0.0756,-1.4743 -0.0428,-2.21036 z"
       id="path4406"
       transform="scale(0.26458333)" /><path
       style="fill:#3d3a27;fill-opacity:1;stroke-width:0.0617025"
       d="m 280.38652,486.36292 c -1.80815,0.0494 -3.63925,0.48396 -5.21049,1.39614 -1.56157,1.01103 -2.57007,2.63301 -3.66761,4.09092 -2.23022,3.1885 -4.31589,6.4877 -6.11658,9.93906 -0.3715,0.8251 -0.91637,1.67642 -0.81093,2.61585 0.12975,0.77647 1.13463,1.11062 1.74358,0.64534 1.2389,-0.92103 2.20901,-2.1489 3.20973,-3.31229 2.44597,-2.89094 4.51529,-6.11627 7.28536,-8.72223 0.77676,-0.65885 1.61978,-1.44291 2.689,-1.51111 0.6776,0.0325 1.07172,0.70711 1.66392,0.95735 1.08399,0.64127 2.35441,0.76735 3.57887,0.90059 1.56948,0.38552 2.93357,1.48826 3.74083,2.87447 0.37379,1.03633 -0.001,2.14835 -0.20779,3.18214 -0.72062,3.11241 -1.6827,6.19952 -2.31875,9.34745 -0.12213,0.74754 -0.287,1.69646 0.4101,2.22322 0.56707,0.53323 1.51047,0.30278 1.90133,-0.3302 1.01368,-1.48178 1.7627,-3.12701 2.5547,-4.73349 1.19914,-2.59192 2.24127,-5.28789 2.76854,-8.10336 0.43865,-2.3563 -0.6654,-4.72279 -2.22114,-6.44146 -1.50595,-1.66896 -3.60004,-2.94838 -5.8951,-3.01257 -0.60059,-0.0761 -1.247,-0.0578 -1.79661,-0.3419 -0.22162,-1.06919 -1.39391,-1.52522 -2.37024,-1.6168 -0.30878,-0.0363 -0.61993,-0.0498 -0.93072,-0.0471 z"
       id="path4408"
       transform="scale(0.26458333)" /><path
       style="fill:#3d3a27;fill-opacity:1;stroke-width:0.0617025"
       d="m 335.25332,441.34105 c -3.35175,-0.007 -6.54201,1.81398 -8.50434,4.48669 -1.66908,2.2507 -2.59651,5.04074 -2.67189,7.83682 -0.0645,3.021 1.29818,5.92235 3.31986,8.11418 1.49652,1.70477 3.48063,3.15452 5.79837,3.38406 2.57482,0.26263 5.04911,-0.98314 6.96841,-2.60235 2.06721,-1.77606 3.77842,-4.04276 4.55659,-6.68159 1.32136,-4.22321 0.16471,-9.22971 -3.18793,-12.19697 -1.70899,-1.53002 -3.99021,-2.35816 -6.27907,-2.34084 z m 0.14739,3.02933 c 1.04313,-0.039 2.09532,0.20356 2.96593,0.7957 1.66834,1.05423 2.69324,2.88904 3.20874,4.75057 1.00371,3.76376 -0.35453,8.07553 -3.38863,10.53244 -1.20901,0.96885 -2.73549,1.5315 -4.28944,1.51543 -1.45303,-0.0394 -2.94039,-0.53262 -4.03539,-1.50968 -1.47266,-1.37977 -1.92219,-3.47517 -2.07829,-5.41007 -0.0994,-1.53491 -0.12442,-3.08337 0.33864,-4.54991 0.66867,-2.33322 2.37622,-4.32673 4.51074,-5.45395 0.8581,-0.41885 1.80757,-0.68557 2.7677,-0.67053 z"
       id="path4410"
       transform="scale(0.26458333)" /><path
       style="fill:#3d3a27;fill-opacity:1;stroke-width:0.0308513"
       d="m 341.04305,469.11387 c -1.24473,0.0211 -2.58051,0.33943 -3.46221,1.27635 -0.5631,0.5928 -0.91582,1.43721 -0.78737,2.25914 0.13827,0.71415 0.82109,1.1108 1.42931,1.39043 1.4819,0.64904 3.07202,0.99994 4.64802,1.33635 1.15785,0.22764 2.31961,0.44969 3.49175,0.58756 0.55456,0.0304 1.07603,-0.46093 1.04362,-1.02188 0.006,-0.51146 -0.4332,-0.93585 -0.92793,-0.99575 -1.7304,-0.36663 -3.47824,-0.73926 -5.10691,-1.44778 -0.37981,-0.17989 -0.80029,-0.3822 -1.07979,-0.68071 0.92583,-0.10971 1.88518,0.0107 2.7895,0.12322 2.65577,0.38494 5.28203,1.01972 7.85774,1.79534 1.28544,0.39363 2.55962,0.82827 3.80187,1.34336 -1.83944,-0.16651 -3.64102,-0.39189 -5.46971,-0.66023 -0.55668,-0.0981 -1.14673,0.33035 -1.17717,0.90428 -0.0663,0.52994 0.36593,1.01788 0.8795,1.10069 0.49743,0.116 0.99823,0.23325 1.45815,0.46138 0.72984,0.25004 1.5152,0.24276 2.27602,0.30814 1.71502,0.10457 3.43456,0.0628 5.15151,0.0483 0.79395,-0.0411 1.60987,-0.0405 2.37184,-0.29314 0.57462,-0.18411 0.99593,-0.81094 0.83214,-1.41392 -0.1772,-0.65771 -0.83288,-1.00021 -1.38773,-1.30129 -1.2051,-0.59982 -2.49926,-0.99162 -3.773,-1.41579 -3.77079,-1.1911 -7.59677,-2.19966 -11.4343,-3.15055 -1.12579,-0.26919 -2.2554,-0.59018 -3.42485,-0.55347 z"
       id="path4414"
       transform="scale(0.26458333)" /><path
       style="fill:#3d3a27;fill-opacity:1;stroke-width:0.0109076"
       d="m 347.93919,474.21738 c -0.40816,0.006 -0.79965,0.27963 -0.93001,0.66901 -0.15695,0.41493 0.01,0.92173 0.38227,1.16263 0.40621,0.28231 1.01465,0.21728 1.34442,-0.15485 0.27933,-0.30061 0.34119,-0.777 0.1452,-1.13807 -0.17618,-0.34408 -0.55772,-0.55517 -0.94188,-0.53872 z"
       id="path4416"
       transform="scale(0.26458333)" /><path
       style="fill:#3d3a27;fill-opacity:1;stroke-width:0.0109076"
       d="m 340.75289,481.85356 c -0.2944,-0.01 -0.59778,0.0907 -0.80084,0.30976 -0.31251,0.31169 -0.37093,0.83807 -0.13486,1.21098 0.12188,0.21913 0.34392,0.34716 0.55285,0.47061 1.29491,0.79571 2.57347,1.62321 3.84696,2.4635 1.11145,0.73433 2.23003,1.48881 3.33451,2.25051 0.42587,0.29368 0.83643,0.57943 1.26116,0.87801 1.20748,0.85186 2.4037,1.70692 3.56618,2.61698 0.0681,0.0473 0.0682,0.0582 -0.0109,0.0253 -0.93906,-0.32554 -1.85722,-0.73976 -2.7415,-1.1752 -0.8729,-0.43188 -1.74313,-0.90696 -2.58795,-1.40495 -0.21571,-0.1272 -0.42792,-0.25481 -0.63337,-0.3807 -1.43136,-0.87884 -2.81585,-1.83496 -4.13756,-2.87165 -0.14502,-0.114 -0.30793,-0.24385 -0.45827,-0.36584 -1.02157,-0.83249 -2.02717,-1.72175 -2.90608,-2.71772 -0.25198,-0.28457 -0.48739,-0.58401 -0.69659,-0.9014 -0.19936,-0.28256 -0.55154,-0.43272 -0.89338,-0.411 -0.32513,-0.0131 -0.6627,0.10827 -0.87067,0.36553 -0.26752,0.30856 -0.3065,0.78101 -0.10806,1.13558 0.50859,0.91492 1.2266,1.68988 1.97352,2.41449 1.06259,1.02952 2.22884,1.94523 3.41843,2.82233 1.69129,1.23423 3.4363,2.39466 5.22263,3.48663 1.37705,0.83499 2.78379,1.62766 4.25425,2.28736 0.84428,0.37056 1.71239,0.71213 2.62471,0.87011 0.53726,0.0955 1.11618,0.091 1.61505,-0.15445 0.43531,-0.21734 0.76084,-0.64728 0.83329,-1.13071 0.0794,-0.48904 -0.0332,-0.99325 -0.23688,-1.43889 -0.25184,-0.49349 -0.65363,-0.88736 -1.04872,-1.26708 -0.83605,-0.77703 -1.74125,-1.47516 -2.65263,-2.16065 -1.95111,-1.45053 -3.96856,-2.80986 -6.01422,-4.12289 -1.63034,-1.04095 -3.28019,-2.05329 -4.97092,-2.99343 -0.18321,-0.0995 -0.39446,-0.12565 -0.60012,-0.11116 z"
       id="path4418"
       transform="scale(0.26458333)" /><path
       style="fill:#3d3a27;fill-opacity:1;stroke-width:0.0109076"
       d="m 337.10908,480.1919 c -0.41159,-4.3e-4 -0.82976,0.20663 -1.03518,0.57125 -0.17876,0.31973 -0.21833,0.6971 -0.21316,1.05762 0.005,0.28655 0.0881,0.584 0.29912,0.78794 0.26222,0.27625 0.68596,0.36828 1.04406,0.24598 0.29636,-0.077 0.56157,-0.28452 0.68692,-0.56643 0.42801,-0.074 0.77641,-0.45816 0.80734,-0.89164 0.0472,-0.43498 -0.23153,-0.87828 -0.64411,-1.02419 -0.3036,-0.10306 -0.62199,-0.18544 -0.94499,-0.18053 z"
       id="path4420"
       transform="scale(0.26458333)" /><path
       style="fill:#3d3a27;fill-opacity:1;stroke-width:0.0109076"
       d="m 338.70608,480.8217 c -0.40859,0.0694 -0.75217,0.41487 -0.81094,0.8262 -0.0723,0.40297 0.13801,0.82917 0.49093,1.03192 0.19578,0.11352 0.3823,0.2124 0.57969,0.32738 0.22406,0.11724 0.42963,0.2907 0.68957,0.31875 0.41101,0.0684 0.83982,-0.15592 1.03848,-0.51829 0.21074,-0.35172 0.18317,-0.83062 -0.0806,-1.14746 -0.18942,-0.24183 -0.48916,-0.3455 -0.74987,-0.48869 -0.24363,-0.11509 -0.47681,-0.25889 -0.73675,-0.33489 -0.13791,-0.0338 -0.28046,-0.0375 -0.42047,-0.0149 z m 0.5484,2.35265 c -0.0164,-0.01 -0.0346,-0.0228 0,0 z"
       id="path4422"
       transform="scale(0.26458333)" /></g><g
     inkscape:groupmode="layer"
     id="layer2"
     inkscape:label="Layer 2"
     transform="translate(-66.215707,-106.97644)"><g
       id="g856"
       style="display:inline"><path
         style="display:none;fill:#6b5b29;fill-opacity:1;stroke-width:0.264583"
         d="m 78.57908,137.7503 c 0.254662,-0.0666 0.67138,-0.0666 0.926042,0 0.254661,0.0665 0.0463,0.121 -0.463021,0.121 -0.509323,0 -0.717682,-0.0545 -0.463021,-0.121 z m 7.14375,0 c 0.254661,-0.0666 0.67138,-0.0666 0.926041,0 0.254662,0.0665 0.0463,0.121 -0.46302,0.121 -0.509323,0 -0.717683,-0.0545 -0.463021,-0.121 z m -9.111588,-0.26294 c 0.190996,-0.0764 0.419199,-0.067 0.507118,0.0209 0.08792,0.0879 -0.06835,0.15045 -0.347266,0.13896 -0.308224,-0.0127 -0.370919,-0.0754 -0.159852,-0.15985 z m 11.625129,0.006 c 0.181901,-0.0734 0.479558,-0.0734 0.661459,0 0.181901,0.0734 0.03307,0.13345 -0.330729,0.13345 -0.363803,0 -0.512631,-0.0601 -0.33073,-0.13345 z m -13.212629,-0.2701 c 0.190996,-0.0764 0.419199,-0.067 0.507118,0.0209 0.08792,0.0879 -0.06835,0.15045 -0.347266,0.13896 -0.308224,-0.0127 -0.370919,-0.0754 -0.159852,-0.15985 z m 14.816666,0 c 0.190996,-0.0764 0.419199,-0.067 0.507118,0.0209 0.08792,0.0879 -0.06835,0.15045 -0.347266,0.13896 -0.308224,-0.0127 -0.370919,-0.0754 -0.159852,-0.15985 z m 1.322916,-0.26458 c 0.190996,-0.0764 0.4192,-0.067 0.507118,0.0209 0.08792,0.0879 -0.06835,0.15046 -0.347265,0.13897 -0.308225,-0.0127 -0.370919,-0.0754 -0.159853,-0.15985 z m -21.79409,-1.55364 c -0.484269,-0.38798 -0.475826,-0.39349 0.147867,-0.0965 0.809898,0.38571 0.959998,0.50792 0.623834,0.50792 -0.141961,0 -0.489226,-0.18516 -0.771701,-0.41147 z m -2.117735,-1.50676 c -0.777106,-0.8599 -0.777106,-0.8599 0.08279,-0.0828 0.801543,0.72437 0.981512,0.94269 0.777105,0.94269 -0.04553,0 -0.432487,-0.38696 -0.859895,-0.8599 z m 31.950515,-2.4474 c 0.0054,-0.43656 0.06469,-0.58312 0.131773,-0.32569 0.06708,0.25743 0.06267,0.61462 -0.0098,0.79375 -0.07249,0.17913 -0.127375,-0.0315 -0.121983,-0.46806 z m -33.298377,-2.38125 c 9.61e-4,-1.16416 0.04748,-1.6075 0.103369,-0.98519 0.05589,0.62231 0.05511,1.57481 -0.0017,2.11667 -0.05685,0.54185 -0.102583,0.0327 -0.101622,-1.13148 z m 32.784352,-0.79375 c 0.0029,-0.58208 0.05712,-0.78905 0.120407,-0.45993 0.06329,0.32912 0.06088,0.80537 -0.0053,1.05833 -0.06622,0.25297 -0.118004,-0.0163 -0.115067,-0.5984 z m 0.21875,-1.87413 c 0.0127,-0.30822 0.07539,-0.37092 0.159851,-0.15985 0.07643,0.191 0.06703,0.4192 -0.02088,0.50712 -0.08792,0.0879 -0.150453,-0.0684 -0.138965,-0.34727 z M 66.098406,125.608 c 0.0127,-0.30822 0.07539,-0.37092 0.159853,-0.15985 0.07643,0.191 0.06703,0.4192 -0.02089,0.50712 -0.08792,0.0879 -0.150453,-0.0683 -0.138965,-0.34727 z m 33.401296,-3.28524 c 0,-0.94589 0.04802,-1.33284 0.106714,-0.8599 0.05869,0.47295 0.05869,1.24685 0,1.7198 -0.05869,0.47294 -0.106714,0.086 -0.106714,-0.8599 z m -0.32838,-2.80017 c 0.0127,-0.30823 0.07539,-0.37092 0.159851,-0.15986 0.07643,0.191 0.06703,0.4192 -0.02088,0.50712 -0.08792,0.0879 -0.150452,-0.0683 -0.138964,-0.34726 z m 0,-7.9375 c 0.0127,-0.30823 0.07539,-0.37092 0.159851,-0.15986 0.07643,0.191 0.06703,0.4192 -0.02088,0.50712 -0.08792,0.0879 -0.150452,-0.0683 -0.138964,-0.34726 z m -6.900055,-1.16858 c -0.238467,-0.15411 -0.271101,-0.2581 -0.08176,-0.26053 0.173312,-0.002 0.388699,0.11501 0.478636,0.26053 0.203015,0.32849 0.111421,0.32849 -0.396876,0 z m -23.38706,-1.19063 c 0.23319,-1.04615 0.503498,-1.55087 1.074402,-2.00613 0.323807,-0.25822 0.287083,-0.13725 -0.117847,0.38817 -0.323534,0.41981 -0.590067,0.95559 -0.592295,1.19063 -0.0022,0.23503 -0.124908,0.60593 -0.272621,0.82421 -0.19621,0.28995 -0.2209,0.18302 -0.09164,-0.39688 z m 19.897867,-0.0484 c 0.190997,-0.0764 0.4192,-0.067 0.507119,0.0209 0.08792,0.0879 -0.06835,0.15046 -0.347266,0.13897 -0.308224,-0.0127 -0.370919,-0.0754 -0.159853,-0.15985 z m -7.160286,-0.25908 c 0.181901,-0.0734 0.479558,-0.0734 0.661459,0 0.181901,0.0734 0.03307,0.13346 -0.330729,0.13346 -0.363803,0 -0.512631,-0.0601 -0.33073,-0.13346 z m 5.291667,0 c 0.181901,-0.0734 0.479557,-0.0734 0.661458,0 0.181901,0.0734 0.03307,0.13346 -0.330729,0.13346 -0.363802,0 -0.51263,-0.0601 -0.330729,-0.13346 z m -13.461353,-0.5529 c -0.329107,-0.41964 -0.319749,-0.429 0.0999,-0.0999 0.254662,0.19972 0.463021,0.40808 0.463021,0.46303 0,0.21776 -0.217272,0.0776 -0.562916,-0.36313 z m 24.110831,0.097 c 0,-0.24058 1.031423,-0.34281 1.359773,-0.13477 0.244774,0.15509 0.08476,0.2294 -0.499877,0.23216 -0.472942,0.002 -0.859896,-0.0416 -0.859896,-0.0974 z m -25.433747,-1.15533 c -0.329108,-0.41965 -0.319749,-0.42901 0.09989,-0.0999 0.440729,0.34564 0.580887,0.56292 0.363126,0.56292 -0.05494,0 -0.263302,-0.20836 -0.463021,-0.46302 z m -1.074194,-0.51147 c 0.190996,-0.0764 0.419199,-0.067 0.507118,0.0209 0.08792,0.0879 -0.06835,0.15046 -0.347265,0.13897 -0.308225,-0.0127 -0.37092,-0.0754 -0.159853,-0.15985 z"
         id="path868" /><path
         style="display:inline;fill:#fcc21b;fill-opacity:1;stroke-width:0.264583"
         d="m 77.983768,137.65404 c -4.70447,-0.58758 -8.978788,-2.17533 -10.753676,-3.99458 -1.020282,-1.04578 -1.020282,-1.04578 -1.013374,-4.80242 0.0076,-4.10786 0.497759,-6.52161 1.877391,-9.24418 0.625026,-1.23343 0.696254,-1.70122 0.793274,-5.20983 0.05863,-2.12009 0.170802,-4.35235 0.249283,-4.96058 0.181521,-1.40679 0.994938,-2.46601 1.893743,-2.46601 0.576459,0 2.343474,1.17346 3.381484,2.24563 1.498794,1.5481 1.447934,1.53953 4.019724,0.6779 4.185081,-1.40213 9.202616,-1.34499 12.951935,0.1475 1.625826,0.64719 1.625826,0.64719 3.684586,-0.41817 2.577324,-1.33371 4.234359,-1.47351 4.508716,-0.38038 0.09455,0.37673 0.0449,1.12088 -0.110339,1.65364 -0.559189,1.91905 -0.909169,6.19919 -0.576802,7.05408 0.577948,1.48656 0.64467,5.70579 0.129082,8.16265 -0.386307,1.84082 -0.416893,2.46097 -0.169778,3.44236 0.5656,2.24619 0.422222,2.97249 -0.83498,4.22969 -2.305237,2.30524 -7.79108,3.84021 -14.341728,4.0129 -2.037291,0.0537 -4.597135,-0.0139 -5.688541,-0.1502 z m -1.187039,-4.07003 c 0.36183,-0.79104 0.657872,-1.75652 0.657872,-2.14552 0,-0.93643 -0.999809,-1.96213 -1.918229,-1.9679 -0.400182,-0.003 -0.727604,-0.12363 -0.727604,-0.26915 0,-0.44079 -1.49325,-0.29624 -2.049962,0.19843 -0.682809,0.60673 -2.790995,4.0349 -2.481296,4.0349 0.131688,0 0.81814,-0.7691 1.52545,-1.7091 1.326532,-1.76294 2.051663,-2.2613 2.556192,-1.75677 0.159976,0.15998 0.546257,0.29087 0.8584,0.29087 0.312144,0 0.788015,0.24363 1.05749,0.54139 0.469902,0.51924 0.471581,0.61035 0.04101,2.22624 -0.49032,1.84011 -0.514607,1.99487 -0.313069,1.99487 0.07473,0 0.43192,-0.64722 0.793749,-1.43826 z m 17.175409,-3.14585 c -0.21251,-0.55379 -4.714373,-3.44101 -4.82903,-3.09704 -0.152631,0.4579 0.701751,1.29869 2.466701,2.42749 1.614297,1.03244 2.60986,1.31461 2.362329,0.66955 z m -9.418117,-3.64418 c 1.601222,-1.35411 2.025852,-1.93155 1.749365,-2.37892 -0.322225,-0.52137 -1.24291,-0.18981 -2.377817,0.85631 -0.654568,0.60336 -1.276986,1.0127 -1.383151,0.90964 -0.106164,-0.10305 -0.553413,-0.79621 -0.993886,-1.54036 -0.440474,-0.74414 -0.938966,-1.39902 -1.107759,-1.45528 -0.286069,-0.0954 -0.90343,0.49157 -2.122004,2.01739 -0.504363,0.63153 -0.504363,0.63153 -0.968384,-0.84371 -0.561834,-1.78622 -1.061481,-2.30739 -1.648917,-1.71996 -0.339915,0.33992 -0.354349,0.58678 -0.0914,1.56329 0.873256,3.24302 1.893168,3.88797 3.512174,2.22093 0.494648,-0.50932 0.958833,-0.92604 1.031521,-0.92604 0.07269,0 0.502228,0.59531 0.954531,1.32292 0.529214,0.85132 1.005605,1.32291 1.336387,1.32291 0.282709,0 1.231914,-0.6071 2.109344,-1.34912 z m -14.301042,0.0234 c 2.049658,-1.02588 2.942627,-1.86059 1.967798,-1.8394 -0.656469,0.0143 -4.890271,2.18427 -5.019802,2.57287 -0.201856,0.60556 0.911067,0.3381 3.052004,-0.73347 z m 24.858106,-1.07922 c -0.42576,-0.24789 -2.173444,-0.76937 -4.34073,-1.2952 -0.780394,-0.18934 -1.409504,0.0559 -1.409504,0.54937 0,0.20743 1.011923,0.50272 2.381249,0.69486 0.509323,0.0715 0.975651,0.17704 1.036286,0.23459 0.06063,0.0576 0.715476,0.10103 1.455208,0.0966 1.050639,-0.006 1.242666,-0.0676 0.877491,-0.28022 z m -22.117457,-2.64192 c 0.848044,-0.45386 0.133021,-1.06575 -1.060023,-0.90713 -0.528712,0.0703 -1.573982,0.17386 -2.322822,0.23014 -2.196506,0.16508 -2.320421,0.54716 -0.225973,0.69676 1.018646,0.0728 2.128911,0.16146 2.467256,0.19712 0.338345,0.0356 0.852048,-0.062 1.141562,-0.21689 z m 16.858428,-0.91493 c 1.077074,-0.9063 1.496502,-2.21829 1.096565,-3.43011 -0.803206,-2.43374 -3.933597,-2.24865 -4.768773,0.28196 -0.387317,1.17358 -0.153491,2.1557 0.735833,3.09066 0.875146,0.92006 1.887711,0.93988 2.936375,0.0575 z m -13.191598,-2.41257 c 0.586826,-0.66836 0.794143,-1.16905 0.794143,-1.91792 0,-3.15843 -3.683061,-3.23669 -4.776,-0.10148 -0.574889,1.64913 0.882742,3.3645 2.582809,3.03952 0.332698,-0.0636 0.96227,-0.52265 1.399048,-1.02012 z"
         id="path866" /><path
         style="display:none;fill:#f1ba1b;stroke-width:0.264583"
         d="m 75.955296,134.63703 c 0,-0.21188 0.101161,-0.32271 0.224802,-0.2463 0.123641,0.0764 0.156301,0.24977 0.07258,0.38524 -0.213949,0.34617 -0.297381,0.3072 -0.297382,-0.13894 z m -5.582411,-1.56757 c 0.252399,-0.19166 0.371462,-0.44509 0.264583,-0.56317 -0.106879,-0.11808 -0.03972,-0.12547 0.149252,-0.0164 0.264709,0.15276 0.272456,0.28396 0.03375,0.57159 -0.170405,0.20532 -0.444077,0.36953 -0.60816,0.3649 -0.164083,-0.005 -0.09182,-0.16523 0.160576,-0.35689 z m 0.624659,-1.26302 c 0.08803,-0.14243 0.226465,-0.19254 0.307645,-0.11136 0.08118,0.0812 0.337148,0.006 0.568818,-0.16808 0.351582,-0.26348 0.366985,-0.2548 0.09317,0.0525 -0.376267,0.42232 -1.211157,0.61769 -0.969632,0.2269 z m 10.656641,-4.12636 c -0.329107,-0.41964 -0.319749,-0.429 0.0999,-0.0999 0.254661,0.19972 0.463021,0.40808 0.463021,0.46302 0,0.21776 -0.217272,0.0776 -0.562916,-0.36313 z m 0.669942,-1.42994 c -0.121853,-0.19716 -0.07202,-0.2333 0.14056,-0.10192 0.20616,0.12742 0.741004,-0.17892 1.429943,-0.81901 1.100596,-1.02257 1.100596,-1.02257 0.05471,0.10191 -1.112185,1.19577 -1.325832,1.30343 -1.625215,0.81902 z m 3.200265,-0.48829 c 0.263389,-0.29104 0.538421,-0.52916 0.611181,-0.52916 0.07276,0 -0.08321,0.23812 -0.346597,0.52916 -0.263389,0.29104 -0.538421,0.52917 -0.611181,0.52917 -0.07276,0 0.08321,-0.23813 0.346597,-0.52917 z m -5.423958,-0.26458 c -0.238467,-0.15411 -0.271101,-0.2581 -0.08176,-0.26053 0.173312,-0.002 0.388698,0.11501 0.478635,0.26053 0.203016,0.32849 0.111422,0.32849 -0.396875,0 z m -1.5875,-0.62906 c 0,-0.0549 0.20836,-0.2633 0.463021,-0.46302 0.419644,-0.32911 0.429002,-0.31975 0.0999,0.0999 -0.345644,0.44073 -0.562916,0.58089 -0.562916,0.36313 z m 7.557636,-0.35172 c -0.143586,-0.37708 -0.113194,-0.40747 0.148112,-0.14811 0.180821,0.17948 0.262115,0.39297 0.180654,0.47443 -0.08146,0.0815 -0.229407,-0.0654 -0.328766,-0.32632 z m -5.557685,-1.01201 c -0.282474,-0.21365 -0.38635,-0.38846 -0.230834,-0.38846 0.155516,0 0.430976,0.17859 0.612133,0.39687 0.41201,0.49645 0.2824,0.49359 -0.381299,-0.008 z m -5.15818,-0.15763 c -0.0092,-0.23684 0.167799,-0.5838 0.393383,-0.77102 0.339053,-0.28139 0.476816,-0.26423 0.794695,0.099 0.211498,0.24164 0.241241,0.32071 0.0661,0.17571 -0.486652,-0.40289 -0.736185,-0.31997 -0.998116,0.33168 -0.161929,0.40285 -0.244708,0.45609 -0.256058,0.16468 z m 12.023644,-0.75697 c -0.09269,-0.14998 0.01351,-0.19434 0.248968,-0.10398 0.458369,0.17589 0.542234,0.36554 0.161648,0.36554 -0.136932,0 -0.32171,-0.1177 -0.410616,-0.26156 z m -1.071086,-1.07896 c -0.09592,-0.15521 -0.117656,-0.33893 -0.0483,-0.40829 0.06936,-0.0694 0.196603,0.0576 0.282774,0.28219 0.178907,0.46622 0.02642,0.54823 -0.234473,0.1261 z m -10.969328,-0.88013 c 0,-0.0572 0.184777,-0.17489 0.410616,-0.26156 0.23546,-0.0904 0.341663,-0.046 0.248969,0.10399 -0.155379,0.2514 -0.659585,0.37185 -0.659585,0.15757 z m 10.634913,-0.55748 c 0.0054,-0.43656 0.06469,-0.58312 0.131773,-0.32569 0.06708,0.25743 0.06267,0.61462 -0.0098,0.79375 -0.07248,0.17913 -0.127363,-0.0315 -0.12197,-0.46806 z m 5.017279,-0.39687 c 0,-0.36381 0.06005,-0.51263 0.133452,-0.33073 0.0734,0.1819 0.0734,0.47955 0,0.66146 -0.0734,0.1819 -0.133452,0.0331 -0.133452,-0.33073 z m -18.541721,-1.21268 c 0.01269,-0.30822 0.07539,-0.37092 0.159853,-0.15985 0.07643,0.191 0.06703,0.4192 -0.02089,0.50712 -0.08792,0.0879 -0.150453,-0.0684 -0.138965,-0.34727 z m 14.398903,-0.63941 c 0.263389,-0.29104 0.53842,-0.52916 0.611181,-0.52916 0.07276,0 -0.08321,0.23812 -0.346598,0.52916 -0.263389,0.29104 -0.53842,0.52917 -0.611181,0.52917 -0.07276,0 0.08321,-0.23813 0.346598,-0.52917 z m 3.273543,-0.19843 c -0.329108,-0.41965 -0.31975,-0.42901 0.09989,-0.0999 0.440729,0.34564 0.580887,0.56292 0.363126,0.56292 -0.05494,0 -0.263301,-0.20836 -0.46302,-0.46302 z m -13.68775,-1.66245 c -0.343543,-0.2862 -0.510825,-0.52037 -0.371736,-0.52037 0.139088,0 0.468388,0.23813 0.731777,0.52917 0.60507,0.66859 0.448484,0.66477 -0.360041,-0.009 z m -2.224056,-0.28862 c 0.179475,-0.18082 0.39297,-0.26211 0.474431,-0.18065 0.08146,0.0815 -0.06538,0.22941 -0.326319,0.32877 -0.377084,0.14358 -0.407475,0.11319 -0.148112,-0.14812 z"
         id="path864" /><path
         style="display:none;fill:#8e7324;stroke-width:0.264583"
         d="m 70.744338,132.50873 c 0.08376,-0.21828 0.273198,-0.39688 0.420968,-0.39688 0.154861,0 0.129147,0.16812 -0.0607,0.39688 -0.181157,0.21828 -0.370592,0.39687 -0.420968,0.39687 -0.05038,0 -0.02306,-0.17859 0.0607,-0.39687 z m 5.95829,-0.92604 c 0,-0.36381 0.06005,-0.51263 0.133452,-0.33073 0.0734,0.1819 0.0734,0.47955 0,0.66145 -0.0734,0.18191 -0.133452,0.0331 -0.133452,-0.33072 z m 0.508278,-0.41893 c 0.0127,-0.30822 0.07539,-0.37092 0.159852,-0.15985 0.07643,0.191 0.06703,0.4192 -0.02089,0.50712 -0.08792,0.0879 -0.150452,-0.0684 -0.138964,-0.34727 z m -5.417593,-0.0661 c -0.07495,-0.12127 0.03185,-0.22049 0.23733,-0.22049 0.205479,0 0.312277,0.0992 0.23733,0.22049 -0.07495,0.12126 -0.181746,0.22048 -0.23733,0.22048 -0.05558,0 -0.162382,-0.0992 -0.23733,-0.22048 z m 2.172096,-2.07693 c 0.190996,-0.0764 0.419199,-0.067 0.507118,0.0209 0.08792,0.0879 -0.06835,0.15046 -0.347266,0.13897 -0.308224,-0.0127 -0.370919,-0.0754 -0.159852,-0.15985 z m 8.251692,-0.97902 c 0,-0.0558 0.238289,-0.16375 0.529532,-0.23991 0.291242,-0.0762 0.462809,-0.0305 0.38126,0.10143 -0.142413,0.23043 -0.910792,0.34726 -0.910792,0.13848 z m 2.116666,-1.35378 c 0.341775,-0.3638 0.680939,-0.66145 0.7537,-0.66145 0.07276,0 -0.147342,0.29765 -0.489116,0.66145 -0.341774,0.36381 -0.680939,0.66146 -0.7537,0.66146 -0.07276,0 0.147342,-0.29765 0.489116,-0.66146 z m -6.085416,0.31409 c 0,-0.0455 0.386953,-0.43249 0.859896,-0.8599 0.859896,-0.7771 0.859896,-0.7771 0.08279,0.0828 -0.724371,0.80155 -0.942686,0.98152 -0.942686,0.77711 z m 5.55625,-1.37242 c 0.341774,-0.3638 0.680939,-0.66146 0.753699,-0.66146 0.07276,0 -0.147342,0.29766 -0.489116,0.66146 -0.341774,0.3638 -0.680939,0.66146 -0.753699,0.66146 -0.07276,0 0.147342,-0.29766 0.489116,-0.66146 z m -6.244513,0.0662 c -0.104679,-0.1819 -0.0916,-0.24118 0.02906,-0.13172 0.120662,0.10946 0.467172,-0.01 0.770023,-0.26458 0.550194,-0.46322 0.550231,-0.46312 0.04661,0.13171 -0.58811,0.69463 -0.596674,0.69731 -0.845693,0.26459 z m 1.746596,-1.62125 c 0,-0.0549 0.20836,-0.2633 0.463021,-0.46302 0.419644,-0.32911 0.429002,-0.31975 0.0999,0.0999 -0.345644,0.44073 -0.562916,0.58089 -0.562916,0.36313 z m -3.510138,-1.25586 c 0.179475,-0.18082 0.39297,-0.26211 0.474431,-0.18065 0.08146,0.0815 -0.06538,0.22941 -0.326319,0.32877 -0.377084,0.14358 -0.407475,0.11319 -0.148112,-0.14812 z m 12.456362,-0.1479 c 0.190996,-0.0764 0.419199,-0.067 0.507118,0.0209 0.08792,0.0879 -0.06835,0.15046 -0.347266,0.13897 -0.308224,-0.0127 -0.370919,-0.0754 -0.159852,-0.15985 z m -15.560807,-0.34843 c -0.238467,-0.15411 -0.2711,-0.2581 -0.08176,-0.26053 0.173313,-0.002 0.388698,0.11501 0.478635,0.26053 0.203016,0.32849 0.111422,0.32849 -0.396875,0 z m 16.933333,-0.0999 c 0,-0.0549 0.208359,-0.2633 0.463021,-0.46302 0.419644,-0.3291 0.429002,-0.31975 0.09989,0.0999 -0.345643,0.44073 -0.562915,0.58089 -0.562915,0.36312 z m -15.274651,-1.67095 c 0.25743,-0.0671 0.614618,-0.0627 0.79375,0.01 0.179131,0.0725 -0.03149,0.12736 -0.468057,0.12197 -0.436562,-0.005 -0.583124,-0.0647 -0.325693,-0.13177 z m -1.163264,-0.54425 c -0.329107,-0.41965 -0.319749,-0.42901 0.0999,-0.0999 0.254661,0.19972 0.463021,0.40808 0.463021,0.46302 0,0.21776 -0.217273,0.0776 -0.562916,-0.36312 z m 4.054079,-2.31511 c 0.0054,-0.43656 0.06469,-0.58312 0.131774,-0.32569 0.06708,0.25743 0.06267,0.61462 -0.0098,0.79375 -0.07248,0.17913 -0.127363,-0.0315 -0.121971,-0.46806 z m 11.132101,-0.58023 c 0.25743,-0.0671 0.614618,-0.0627 0.79375,0.01 0.179131,0.0725 -0.03149,0.12736 -0.468057,0.12197 -0.436562,-0.005 -0.583124,-0.0647 -0.325693,-0.13178 z m -15.152431,-0.44571 c 0,-0.0549 0.208359,-0.2633 0.463021,-0.46302 0.419644,-0.3291 0.429002,-0.31975 0.09989,0.0999 -0.345644,0.44073 -0.562916,0.58089 -0.562916,0.36312 z m 1.785937,-1.13366 c 0.181901,-0.0734 0.479558,-0.0734 0.661459,0 0.181901,0.0734 0.03307,0.13345 -0.330729,0.13345 -0.363803,0 -0.512631,-0.06 -0.33073,-0.13345 z"
         id="path862" /><path
         style="display:none;fill:#635328;stroke-width:0.264583"
         d="m 71.273505,131.71498 c 0.08376,-0.21828 0.273197,-0.39688 0.420967,-0.39688 0.154862,0 0.129148,0.16812 -0.0607,0.39688 -0.181157,0.21828 -0.370593,0.39687 -0.420968,0.39687 -0.05038,0 -0.02306,-0.17859 0.0607,-0.39687 z m 11.110928,-5.10268 c -0.07067,-0.11434 0.09216,-0.20789 0.361834,-0.20789 0.269674,0 0.4325,0.0936 0.361835,0.20789 -0.07067,0.11434 -0.23349,0.20789 -0.361835,0.20789 -0.128344,0 -0.291169,-0.0935 -0.361834,-0.20789 z m -10.35379,-1.11503 c 0.263389,-0.29104 0.53842,-0.52917 0.611181,-0.52917 0.07276,0 -0.08321,0.23813 -0.346598,0.52917 -0.263389,0.29104 -0.53842,0.52917 -0.611181,0.52917 -0.07276,0 0.08321,-0.23813 0.346598,-0.52917 z m 13.096874,0.42927 c 0,-0.0549 0.20836,-0.2633 0.463021,-0.46302 0.419644,-0.32911 0.429002,-0.31975 0.0999,0.0999 -0.345643,0.44073 -0.562916,0.58089 -0.562916,0.36313 z m 4.376924,-0.94016 c -0.08372,-0.13546 -0.05106,-0.30882 0.07258,-0.38523 0.123641,-0.0764 0.224802,0.0344 0.224802,0.2463 0,0.44613 -0.08343,0.48511 -0.297382,0.13893 z m -10.726923,-0.11817 c 0,-0.0549 0.208359,-0.2633 0.463021,-0.46302 0.419643,-0.32911 0.429002,-0.31975 0.09989,0.0999 -0.345643,0.44073 -0.562915,0.58089 -0.562915,0.36313 z m -3.154112,-1.37736 c 0.01269,-0.30823 0.07539,-0.37092 0.159852,-0.15986 0.07643,0.191 0.06703,0.4192 -0.02089,0.50712 -0.08792,0.0879 -0.150453,-0.0683 -0.138965,-0.34726 z m 10.604221,-3.28525 c 0,-0.3638 0.06005,-0.51263 0.133452,-0.33073 0.0734,0.1819 0.0734,0.47956 0,0.66146 -0.0734,0.1819 -0.133452,0.0331 -0.133452,-0.33073 z m 4.497916,-0.52916 c 0,-0.36381 0.06005,-0.51263 0.133453,-0.33073 0.0734,0.1819 0.0734,0.47955 0,0.66146 -0.0734,0.1819 -0.133453,0.0331 -0.133453,-0.33073 z m -18.012554,-1.21268 c 0.0127,-0.30822 0.07539,-0.37092 0.159853,-0.15985 0.07643,0.191 0.06703,0.4192 -0.02089,0.50712 -0.08792,0.0879 -0.150453,-0.0684 -0.138963,-0.34727 z"
         id="path860" /><path
         style="display:inline;fill:#2e2e2d;stroke-width:0.264583"
         d="m 76.834644,132.0495 c 0.132794,-0.82654 0.05575,-1.0755 -0.47052,-1.52042 -0.346123,-0.29263 -0.837555,-0.48411 -1.092072,-0.42552 -0.254516,0.0586 -0.529434,-10e-4 -0.610927,-0.13321 -0.345891,-0.55967 -1.585578,-0.22894 -2.315634,0.61776 -0.743485,0.86228 -0.743485,0.86228 -0.132292,-0.13523 0.668527,-1.09109 1.609597,-1.49878 2.367329,-1.02557 0.267104,0.16681 0.725383,0.30329 1.0184,0.30329 1.196088,0 2.026676,1.81763 1.329954,2.91042 -0.17377,0.27255 -0.203291,0.0873 -0.09424,-0.59152 z m 14.438263,-2.56546 c -1.527105,-0.98702 -2.556759,-2.13469 -1.915172,-2.13469 0.305203,0 4.18155,2.60754 4.398723,2.95893 0.352187,0.56985 -1.043054,0.1068 -2.483551,-0.82424 z m -23.812786,-1.92471 c 0.135807,-0.41697 1.688629,-1.29725 3.636649,-2.06158 1.447377,-0.5679 1.447377,-0.5679 0.947031,-0.015 -1.019721,1.12678 -4.837686,2.85648 -4.58368,2.0766 z m 13.796181,-1.13602 c -0.531412,-0.80036 -0.994871,-1.45521 -1.029908,-1.45521 -0.03504,0 -0.539955,0.47625 -1.122038,1.05834 -0.582083,0.58208 -1.256412,1.05833 -1.498508,1.05833 -0.53258,0 -1.732405,-2.43797 -1.736162,-3.52778 -0.0041,-1.17735 0.551541,-0.71223 1.149372,0.9622 0.295977,0.82899 0.624,1.50725 0.728939,1.50725 0.104939,0 0.662412,-0.53579 1.238829,-1.19063 0.576416,-0.65484 1.173227,-1.19062 1.326245,-1.19062 0.153019,0 0.712176,0.71437 1.242572,1.5875 0.530395,0.87312 1.050007,1.5875 1.154693,1.5875 0.104686,0 0.716168,-0.53579 1.358848,-1.19063 1.183069,-1.20546 1.852083,-1.49982 1.852083,-0.81491 0,0.44757 -2.866956,3.06387 -3.357404,3.06387 -0.187746,0 -0.776149,-0.65484 -1.307561,-1.45521 z M 92.0546,125.73047 c -1.765351,-0.29366 -2.592982,-0.70439 -2.203728,-1.09364 0.305469,-0.30547 3.299439,0.36748 4.537062,1.01979 0.661458,0.34863 0.661458,0.34863 -0.132292,0.32829 -0.436563,-0.0112 -1.42703,-0.12568 -2.201042,-0.25444 z m -23.935098,-2.91018 c 0.391524,-0.39153 4.675152,-0.48231 4.772382,-0.10115 0.04059,0.15914 -0.959999,0.29507 -2.510656,0.34108 -2.000346,0.0593 -2.507233,0.006 -2.261726,-0.23993 z m 19.472707,-0.49417 c -0.781919,-0.32275 -1.141775,-1.0754 -1.141775,-2.38806 0,-2.20546 2.459239,-3.50399 3.684963,-1.94573 1.587088,2.01765 -0.312425,5.25457 -2.543188,4.33379 z m -14.106358,-2.3851 c -0.356106,-0.35611 -0.529166,-0.88194 -0.529166,-1.60785 0,-2.69205 3.497873,-3.66769 4.129327,-1.15177 0.565528,2.25324 -2.079246,4.28053 -3.600161,2.75962 z"
         id="path858" /></g></g></svg>
